<svg width="318" height="38" viewBox="0 0 318 38" fill="none" xmlns="http://www.w3.org/2000/svg">
<g filter="url(#filter0_d_161_309)">
<path d="M309.291 6.74621V17.7192L301.459 6.74621H297.978V26.9601H302.619V15.9846L310.449 26.9601H313.93V6.74621H309.291ZM282.001 22.511V18.9316H289.251V14.5423H282.001V11.1953H289.975V6.74621H277.362V26.9601H290.122V22.511H282.001ZM269.935 15.6995H259.757V19.739H265.18C264.454 21.6748 262.685 22.8608 259.988 22.8608C256.044 22.8608 253.607 20.3475 253.607 16.9118C253.607 13.3588 256.16 10.8455 259.581 10.8455C261.874 10.8455 263.698 11.8853 264.543 13.2126L268.484 10.9605C266.773 8.24841 263.496 6.34131 259.613 6.34131C253.636 6.34131 248.968 11.0204 248.968 16.8807C248.968 22.6859 253.552 27.3649 259.93 27.3649C265.613 27.3649 269.935 23.6107 269.935 17.4318V15.6995ZM234.303 22.511V18.9316H241.555V14.5423H234.303V11.1953H242.279V6.74621H229.664V26.9601H242.424V22.511H234.303ZM215.887 22.511V6.74621H211.245V26.9601H223.136V22.511H215.887ZM197.468 22.511V6.74621H192.829V26.9601H204.72V22.511H197.468ZM174.848 22.8608C171.542 22.8608 168.929 20.4625 168.929 16.8544C168.929 13.2438 171.542 10.8455 174.848 10.8455C178.152 10.8455 180.765 13.2438 180.765 16.8544C180.765 20.4625 178.152 22.8608 174.848 22.8608ZM174.848 27.3649C180.676 27.3649 185.404 22.8009 185.404 16.8544C185.404 10.9054 180.676 6.34131 174.848 6.34131C169.018 6.34131 164.29 10.9054 164.29 16.8544C164.29 22.8009 169.018 27.3649 174.848 27.3649ZM159.666 26.9601L152.533 16.5932L159.375 6.74621H154.098L147.892 15.5246V6.74621H143.251V26.9601H147.892V17.6042L154.388 26.9601H159.666ZM73.168 6.74621V17.7192L65.3374 6.74621H61.857V26.9601H66.4959V15.9846L74.3265 26.9601H77.8069V6.74621H73.168ZM48.7787 26.9601H53.4176V6.74621H48.7787V26.9601ZM32.7829 22.511V18.9316H40.0313V14.5423H32.7829V11.1953H40.7591V6.74621H28.144V26.9601H40.901V22.511H32.7829ZM15.0211 6.74621V14.4849H8.64256V6.74621H4V26.9601H8.64256V18.9316H15.0211V26.9601H19.6613V6.74621H15.0211Z" fill="white"/>
<path d="M104.842 5.3758C105.3 4.86789 105.958 4.59716 106.739 4.59716C107.466 4.59716 108.072 4.81997 108.54 5.25603C109.031 5.73041 109.275 6.35332 109.275 7.11521C109.275 7.8196 109.06 8.42335 108.639 8.91211C108.328 9.26669 107.858 9.66681 107.237 10.0981L106.52 10.594L105.879 10.0022C105.333 9.49191 104.948 9.0966 104.707 8.79231C104.345 8.32512 104.16 7.79085 104.16 7.19907C104.16 6.48271 104.388 5.86937 104.842 5.3758ZM105.62 24.1402C105.079 23.8838 104.628 23.5604 104.285 23.1795C103.939 22.777 103.689 22.3529 103.539 21.9145C103.394 21.4784 103.323 21.0855 103.323 20.7165C103.323 20.0169 103.608 18.9627 104.968 17.9349C105.638 17.4246 106.318 16.9934 107.104 16.4926C108.075 15.8769 109.273 15.1174 110.662 13.9985C112.318 12.6616 113.362 11.5931 113.862 10.733C114.5 9.65003 114.824 8.40659 114.824 7.02895C114.824 5.86456 114.599 4.87507 114.156 4.09642C113.705 3.27943 113.101 2.6086 112.36 2.09588C111.608 1.58077 110.736 1.19264 109.77 0.948263C108.777 0.70628 107.755 0.576904 106.734 0.576904C105.579 0.576904 104.454 0.74701 103.48 1.06326C102.509 1.37712 101.661 1.83473 100.962 2.41693C100.264 2.99193 99.7229 3.70111 99.3031 4.59237C98.9025 5.45247 98.698 6.44199 98.698 7.52968C98.698 8.46407 98.8628 9.31941 99.19 10.0693C99.5234 10.8575 100.121 11.7704 100.972 12.7934L101.355 13.2558L100.883 13.6344C99.8013 14.4969 98.8604 15.5271 98.0845 16.6915C97.335 17.8031 96.9561 19.1568 96.9561 20.7165C96.9561 21.7731 97.1581 22.8009 97.5767 23.8599C97.9785 24.8757 98.5994 25.8124 99.4199 26.6463C100.238 27.4704 101.265 28.1461 102.472 28.6613C103.685 29.1762 105.121 29.4375 106.739 29.4375C107.974 29.4375 109.231 29.2768 110.477 28.963C111.472 28.7091 112.246 28.4959 113.143 28.0239L113.623 27.7484L109.765 24.1234C108.417 24.6194 106.673 24.6314 105.62 24.1402Z" fill="white"/>
<path d="M118.162 18.7231L115.464 16.0326L112.249 18.9795L118.054 24.7918L128.464 15.0383L125.364 11.9668L118.162 18.7231Z" fill="#DCC18D"/>
</g>
<defs>
<filter id="filter0_d_161_309" x="-1.01318" y="0" width="320" height="38" filterUnits="userSpaceOnUse" color-interpolation-filters="sRGB">
<feFlood flood-opacity="0" result="BackgroundImageFix"/>
<feColorMatrix in="SourceAlpha" type="matrix" values="0 0 0 0 0 0 0 0 0 0 0 0 0 0 0 0 0 0 127 0" result="hardAlpha"/>
<feOffset dy="4"/>
<feGaussianBlur stdDeviation="2"/>
<feComposite in2="hardAlpha" operator="out"/>
<feColorMatrix type="matrix" values="0 0 0 0 0 0 0 0 0 0 0 0 0 0 0 0 0 0 0.25 0"/>
<feBlend mode="normal" in2="BackgroundImageFix" result="effect1_dropShadow_161_309"/>
<feBlend mode="normal" in="SourceGraphic" in2="effect1_dropShadow_161_309" result="shape"/>
</filter>
</defs>
</svg>
